<?xml version="1.0" encoding="UTF-8" standalone="no"?>
<svg xmlns:dc="http://purl.org/dc/elements/1.1/" 
   xmlns:cc="http://creativecommons.org/ns#" 
   xmlns:rdf="http://www.w3.org/1999/02/22-rdf-syntax-ns#" 
   xmlns:svg="http://www.w3.org/2000/svg" 
   xmlns="http://www.w3.org/2000/svg" 
   xmlns:sodipodi="http://sodipodi.sourceforge.net/DTD/sodipodi-0.dtd" 
   xmlns:inkscape="http://www.inkscape.org/namespaces/inkscape" version="1.1" width="368" height="16" id="svg22618" sodipodi:docname="bar.svg" inkscape:version="0.92.4 (5da689c313, 2019-01-14)">
   <metadata id="metadata22624">
      <rdf:RDF>
         <cc:Work rdf:about="">
            <dc:format>image/svg+xml</dc:format>
            <dc:type rdf:resource="http://purl.org/dc/dcmitype/StillImage" />
            <dc:title />
         </cc:Work>
      </rdf:RDF>
   </metadata>
   <defs id="defs22622" />
   <sodipodi:namedview pagecolor="#ffffff" bordercolor="#666666" borderopacity="1" objecttolerance="10" gridtolerance="10" guidetolerance="10" inkscape:pageopacity="0" inkscape:pageshadow="2" inkscape:window-width="2560" inkscape:window-height="1377" id="namedview22620" showgrid="false" inkscape:zoom="17.462463" inkscape:cx="11.113583" inkscape:cy="17.486436" inkscape:window-x="-8" inkscape:window-y="-8" inkscape:window-maximized="1" inkscape:current-layer="svg22618" fit-margin-top="0" fit-margin-left="0" fit-margin-right="0" fit-margin-bottom="0" inkscape:snap-page="true" inkscape:snap-intersection-paths="true" inkscape:snap-bbox="true" inkscape:bbox-paths="true" inkscape:bbox-nodes="true" inkscape:snap-bbox-edge-midpoints="true" inkscape:snap-bbox-midpoints="true" />
   <path style="fill:#000000" d="M 14,0 V 2 H 12 V 4 H 10 V 6 H 8 V 8 H 6 v 2 H 4 v 2 H 2 v 2 H 0 v 2 h 354 v -2 h 2 v -2 h 2 v -2 h 2 V 8 h 2 V 6 h 2 V 4 h 2 V 2 h 2 V 0 Z m 2,4 h 342 c 0,0.6666667 0,1.3333333 0,2 -0.66667,0 -1.33333,0 -2,0 0,0.6666667 0,1.3333333 0,2 -0.66667,0 -1.33333,0 -2,0 0,0.6666667 0,1.3333333 0,2 -0.66667,0 -1.33333,0 -2,0 0,0.666667 0,1.333333 0,2 H 10 v -2 h 2 V 8 h 2 V 6 h 2 z m 5,2 v 2 h -2 v 2 H 348 V 8 h 2 V 6 Z" id="rect14130" inkscape:connector-curvature="0" sodipodi:nodetypes="ccccccccccccccccccccccccccccccccccccccccccccccccccccccccccc" />
</svg>
