<?xml version="1.0" encoding="UTF-8" standalone="no"?>
<svg xmlns:dc="http://purl.org/dc/elements/1.1/" 
   xmlns:cc="http://creativecommons.org/ns#" 
   xmlns:rdf="http://www.w3.org/1999/02/22-rdf-syntax-ns#" 
   xmlns:svg="http://www.w3.org/2000/svg" 
   xmlns="http://www.w3.org/2000/svg" 
   xmlns:sodipodi="http://sodipodi.sourceforge.net/DTD/sodipodi-0.dtd" 
   xmlns:inkscape="http://www.inkscape.org/namespaces/inkscape" version="1.1" width="368" height="16" id="svg22618" sodipodi:docname="bar.svg" inkscape:version="0.92.4 (5da689c313, 2019-01-14)">
   <metadata id="metadata22624">
      <rdf:RDF>
         <cc:Work rdf:about="">
            <dc:format>image/svg+xml</dc:format>
            <dc:type rdf:resource="http://purl.org/dc/dcmitype/StillImage" />
            <dc:title></dc:title>
         </cc:Work>
      </rdf:RDF>
   </metadata>
   <defs id="defs22622" />
   <sodipodi:namedview pagecolor="#ffffff" bordercolor="#666666" borderopacity="1" objecttolerance="10" gridtolerance="10" guidetolerance="10" inkscape:pageopacity="0" inkscape:pageshadow="2" inkscape:window-width="2560" inkscape:window-height="1377" id="namedview22620" showgrid="false" inkscape:zoom="24.695652" inkscape:cx="29.41164" inkscape:cy="20.053607" inkscape:window-x="-8" inkscape:window-y="-8" inkscape:window-maximized="1" inkscape:current-layer="svg22618" fit-margin-top="0" fit-margin-left="0" fit-margin-right="0" fit-margin-bottom="0" inkscape:snap-page="true" inkscape:snap-intersection-paths="true" inkscape:snap-bbox="true" inkscape:bbox-paths="true" inkscape:bbox-nodes="true" inkscape:snap-bbox-edge-midpoints="true" inkscape:snap-bbox-midpoints="true" />
   <path style="fill:#000000" d="M 14 0 L 14 1 L 14 2 L 13 2 L 12 2 L 12 3 L 12 4 L 11 4 L 10 4 L 10 5 L 10 6 L 9 6 L 8 6 L 8 7 L 8 8 L 7 8 L 6 8 L 6 9 L 6 10 L 5 10 L 4 10 L 4 11 L 4 12 L 3 12 L 2 12 L 2 13 L 2 14 L 1 14 L 0 14 L 0 15 L 0 16 L 1 16 L 2 16 L 3 16 L 4 16 L 5 16 L 6 16 L 7 16 L 8 16 L 9 16 L 10 16 L 11 16 L 12 16 L 13 16 L 14 16 L 15 16 L 16 16 L 17 16 L 18 16 L 19 16 L 20 16 L 21 16 L 21 15 L 21 14 L 21 13 L 21 12 L 20 12 L 19 12 L 18 12 L 17 12 L 16 12 L 15 12 L 14 12 L 13 12 L 12 12 L 11 12 L 10 12 L 10 11 L 10 10 L 11 10 L 12 10 L 12 9 L 12 8 L 13 8 L 14 8 L 14 7 L 14 6 L 15 6 L 16 6 L 16 5 L 16 4 L 17 4 L 18 4 L 19 4 L 20 4 L 21 4 L 21 3 L 21 2 L 21 1 L 21 0 L 20 0 L 19 0 L 18 0 L 17 0 L 16 0 L 15 0 L 14 0 z M 19 8 L 19 9 L 19 10 L 20 10 L 21 10 L 21 9 L 21 8 L 20 8 L 19 8 z " id="rect14130" />
   <path style="fill:#000000" d="M 348 0 L 348 1 L 348 2 L 348 3 L 348 4 L 349 4 L 350 4 L 351 4 L 352 4 L 353 4 L 354 4 L 355 4 L 356 4 L 357 4 L 358 4 L 358 5 L 358 6 L 357 6 L 356 6 L 356 7 L 356 8 L 355 8 L 354 8 L 354 9 L 354 10 L 353 10 L 352 10 L 352 11 L 352 12 L 351 12 L 350 12 L 349 12 L 348 12 L 348 13 L 348 14 L 348 15 L 348 16 L 349 16 L 350 16 L 351 16 L 352 16 L 353 16 L 354 16 L 354 15 L 354 14 L 355 14 L 356 14 L 356 13 L 356 12 L 357 12 L 358 12 L 358 11 L 358 10 L 359 10 L 360 10 L 360 9 L 360 8 L 361 8 L 362 8 L 362 7 L 362 6 L 363 6 L 364 6 L 364 5 L 364 4 L 365 4 L 366 4 L 366 3 L 366 2 L 367 2 L 368 2 L 368 1 L 368 0 L 367 0 L 366 0 L 365 0 L 364 0 L 363 0 L 362 0 L 361 0 L 360 0 L 359 0 L 358 0 L 357 0 L 356 0 L 355 0 L 354 0 L 353 0 L 352 0 L 351 0 L 350 0 L 349 0 L 348 0 z M 348 6 L 348 7 L 348 8 L 349 8 L 350 8 L 350 7 L 350 6 L 349 6 L 348 6 z " id="rect14798" />
   <path style="fill:#000000;stroke-width:36.16628265" d="M 21 0 L 21 4 L 348 4 L 348 0 L 21 0 z M 21 6 L 21 10 L 348 10 L 348 6 L 21 6 z M 21 12 L 21 16 L 348 16 L 348 12 L 21 12 z " id="rect22604" />
</svg>
